<?xml version="1.0" encoding="utf-8"?><svg xmlns="http://www.w3.org/2000/svg" xmlns:xlink="http://www.w3.org/1999/xlink"><symbol viewBox="0 0 344.96 344.96" id="check" xmlns="http://www.w3.org/2000/svg"><g data-name="Слой 2"><path d="M321.85 86.24l-40-23.11-23.1-40H212.5L172.48 0l-40 23.11H86.24l-23.11 40-40 23.1v46.21L0 172.48l23.11 40v46.21l40 23.11 23.11 40h46.21l40 23.1 40-23.11h46.21l23.11-40 40-23.11V212.5l23.11-40-23.11-40V86.24zM156.91 243.07a16.79 16.79 0 0 1-23.34 0l-50.45-50.44a16.19 16.19 0 0 1 0-22.89l13.35-13.35a16.19 16.19 0 0 1 22.89 0l25.87 25.87 80.34-80.35a16.19 16.19 0 0 1 22.89 0l13.35 13.35a16.19 16.19 0 0 1 0 22.89z" data-name="Capa 1"/></g></symbol><symbol viewBox="0 0 90 58" id="email" xmlns="http://www.w3.org/2000/svg"><g data-name="Слой 2"><path d="M3 5.43l37.5 20.14a10.76 10.76 0 0 0 9.06 0L87 5.43C89.47 4.12 91.78 0 87.3 0H2.7C-1.78 0 .53 4.12 3 5.43zm85.09 10L49.53 35.57a8.53 8.53 0 0 1-4.53 1 8.53 8.53 0 0 1-4.53-1L1.94 15.43c-2-1-1.94.17-1.94 1.1v36.68C0 55.3 2.79 58 5 58h80c2.17 0 5-2.7 5-4.79V16.53c0-.93 0-2.12-1.94-1.1z" data-name="All glyphs"/></g></symbol><symbol viewBox="0 0 50 80" id="mark" xmlns="http://www.w3.org/2000/svg"><g data-name="Слой 2"><path d="M25 0A25 25 0 0 0 0 25c0 23.87 25 55 25 55s25-31.13 25-55A25 25 0 0 0 25 0zm0 38.8a13.5 13.5 0 1 1 13.5-13.5A13.49 13.49 0 0 1 25 38.8z" data-name="All glyphs"/></g></symbol><symbol class="dsvg-inline--fa dfa-facebook-f dfa-w-9" viewBox="0 0 264 512" id="soc-1" xmlns="http://www.w3.org/2000/svg"><path d="M215.8 85H264V3.6C255.7 2.5 227.1 0 193.8 0 124.3 0 76.7 42.4 76.7 120.3V192H0v91h76.7v229h94V283h73.6l11.7-91h-85.3v-62.7c0-26.3 7.3-44.3 45.1-44.3z"/></symbol><symbol class="esvg-inline--fa efa-twitter efa-w-16" viewBox="0 0 512 512" id="soc-2" xmlns="http://www.w3.org/2000/svg"><path d="M459.37 151.716c.325 4.548.325 9.097.325 13.645 0 138.72-105.583 298.558-298.558 298.558-59.452 0-114.68-17.219-161.137-47.106 8.447.974 16.568 1.299 25.34 1.299 49.055 0 94.213-16.568 130.274-44.832-46.132-.975-84.792-31.188-98.112-72.772 6.498.974 12.995 1.624 19.818 1.624 9.421 0 18.843-1.3 27.614-3.573-48.081-9.747-84.143-51.98-84.143-102.985v-1.299c13.969 7.797 30.214 12.67 47.431 13.319-28.264-18.843-46.781-51.005-46.781-87.391 0-19.492 5.197-37.36 14.294-52.954 51.655 63.675 129.3 105.258 216.365 109.807-1.624-7.797-2.599-15.918-2.599-24.04 0-57.828 46.782-104.934 104.934-104.934 30.213 0 57.502 12.67 76.67 33.137 23.715-4.548 46.456-13.32 66.599-25.34-7.798 24.366-24.366 44.833-46.132 57.827 21.117-2.273 41.584-8.122 60.426-16.243-14.292 20.791-32.161 39.308-52.628 54.253z"/></symbol><symbol viewBox="0 0 512 512" id="soc-3" xmlns="http://www.w3.org/2000/svg"><path d="M42.691 170.261c0-61.716 46.356-110.561 111.903-110.561 18.227 0 29.635 2.416 38.471 3.645 4.157 1.219 8.325 1.219 12.482 1.219l64.492-.604c1.075 0 1.587.604 1.587 1.198 0 3.103-1.587 7.342-3.656 7.342l-48.363 7.353c16.138 14.653 24.965 40.929 24.965 64.727 0 60.477-40.048 95.908-93.635 105.063-6.768 1.239-16.138 3.072-25.487 7.342-20.838 6.717-40.08 16.497-40.08 25.026 0 11.008 38.502 17.122 73.871 22.599 67.645 9.165 109.281 20.798 109.281 65.382 0 50.688-55.685 89.784-139.417 89.784-63.468 0-109.261-20.142-109.261-58.644 0-28.058 21.35-41.543 80.087-77.599-16.128-4.25-32.225-10.353-40.571-15.237-6.215-3.676-9.871-10.404-9.871-23.204 0-4.905 1.075-6.738 4.157-8.571 19.742-9.144 40.571-18.934 56.719-26.256-35.369-6.113-67.666-36.014-67.666-79.431v-.573zm98.898 278.548c44.728 0 83.722-24.474 84.265-59.914 0-39.68-43.714-48.22-104.581-59.218-6.789-1.219-10.404-1.219-16.138 2.437-18.176 12.841-40.059 32.993-40.059 62.3 0 34.202 32.256 54.395 75.961 54.395h.553zm1.013-208.313c30.69 0 57.744-26.245 57.744-87.982 0-47.012-18.186-82.442-52.5-82.442-40.622 0-60.365 41.544-60.365 92.242 0 48.261 24.965 78.183 54.661 78.183h.461zm157.082-105.758h192.492v27.525H299.685v-27.525z"/><path d="M382.167 52.224h27.515v192.532h-27.515V52.224z"/></symbol><symbol class="gsvg-inline--fa gfa-pinterest-p gfa-w-12" viewBox="0 0 384 512" id="soc-4" xmlns="http://www.w3.org/2000/svg"><path d="M204 6.5C101.4 6.5 0 74.9 0 185.6 0 256 39.6 296 63.6 296c9.9 0 15.6-27.6 15.6-35.4 0-9.3-23.7-29.1-23.7-67.8 0-80.4 61.2-137.4 140.4-137.4 68.1 0 118.5 38.7 118.5 109.8 0 53.1-21.3 152.7-90.3 152.7-24.9 0-46.2-18-46.2-43.8 0-37.8 26.4-74.4 26.4-113.4 0-66.2-93.9-54.2-93.9 25.8 0 16.8 2.1 35.4 9.6 50.7-13.8 59.4-42 147.9-42 209.1 0 18.9 2.7 37.5 4.5 56.4 3.4 3.8 1.7 3.4 6.9 1.5 50.4-69 48.6-82.5 71.4-172.8 12.3 23.4 44.1 36 69.3 36 106.2 0 153.9-103.5 153.9-196.8C384 71.3 298.2 6.5 204 6.5z"/></symbol><symbol class="hsvg-inline--fa hfa-linkedin-in hfa-w-14" viewBox="0 0 448 512" id="soc-5" xmlns="http://www.w3.org/2000/svg"><path d="M100.3 448H7.4V148.9h92.9V448zM53.8 108.1C24.1 108.1 0 83.5 0 53.8S24.1 0 53.8 0s53.8 24.1 53.8 53.8-24.1 54.3-53.8 54.3zM448 448h-92.7V302.4c0-34.7-.7-79.2-48.3-79.2-48.3 0-55.7 37.7-55.7 76.7V448h-92.8V148.9h89.1v40.8h1.3c12.4-23.5 42.7-48.3 87.9-48.3 94 0 111.3 61.9 111.3 142.3V448h-.1z"/></symbol><symbol class="isvg-inline--fa ifa-dribbble ifa-w-16" viewBox="0 0 512 512" id="soc-6" xmlns="http://www.w3.org/2000/svg"><path d="M256 8C119.252 8 8 119.252 8 256s111.252 248 248 248 248-111.252 248-248S392.748 8 256 8zm163.97 114.366c29.503 36.046 47.369 81.957 47.835 131.955-6.984-1.477-77.018-15.682-147.502-6.818-5.752-14.041-11.181-26.393-18.617-41.614 78.321-31.977 113.818-77.482 118.284-83.523zM396.421 97.87c-3.81 5.427-35.697 48.286-111.021 76.519-34.712-63.776-73.185-116.168-79.04-124.008 67.176-16.193 137.966 1.27 190.061 47.489zm-230.48-33.25c5.585 7.659 43.438 60.116 78.537 122.509-99.087 26.313-186.36 25.934-195.834 25.809C62.38 147.205 106.678 92.573 165.941 64.62zM44.17 256.323c0-2.166.043-4.322.108-6.473 9.268.19 111.92 1.513 217.706-30.146 6.064 11.868 11.857 23.915 17.174 35.949-76.599 21.575-146.194 83.527-180.531 142.306C64.794 360.405 44.17 310.73 44.17 256.323zm81.807 167.113c22.127-45.233 82.178-103.622 167.579-132.756 29.74 77.283 42.039 142.053 45.189 160.638-68.112 29.013-150.015 21.053-212.768-27.882zm248.38 8.489c-2.171-12.886-13.446-74.897-41.152-151.033 66.38-10.626 124.7 6.768 131.947 9.055-9.442 58.941-43.273 109.844-90.795 141.978z"/></symbol><symbol viewBox="0 0 80 80" id="tel" xmlns="http://www.w3.org/2000/svg"><g data-name="Слой 2"><path d="M46.14 46.14C38.23 54.06 29.06 61.63 25.43 58c-5.19-5.19-8.38-9.7-19.82-.51S3 72.81 8 77.84c5.8 5.8 27.42.3 48.79-21.06S83.64 13.78 77.84 8c-5-5-11.16-13.81-20.35-2.37s-4.68 14.61.51 19.8c3.63 3.63-3.94 12.79-11.86 20.71z" data-name="All glyphs"/></g></symbol></svg>